<svg xmlns="http://www.w3.org/2000/svg" viewBox="0 0 2000 2000">
  <defs>
    <!-- Gradient -->
    <linearGradient id="orangeGrad" x1="0%" y1="0%" x2="100%" y2="100%">
      <stop offset="0%" stop-color="#FF8A1F"/>
      <stop offset="100%" stop-color="#FF5C00"/>
    </linearGradient>

    <!-- Soft shadow -->
    <filter id="shadow" x="-20%" y="-20%" width="140%" height="140%">
      <feDropShadow dx="0" dy="10" stdDeviation="20" flood-color="#000" flood-opacity="0.15"/>
    </filter>
  </defs>

  <!-- Top ellipse -->
  <path d="M1507.79 760.427c-.65 63.101-207.62 111.366-468.81 108.688-261.194-2.678-465.548-45.025-464.901-108.125s206.05-123.061 467.241-120.383 467.11 56.719 466.47 119.82Z" fill="url(#orangeGrad)" filter="url(#shadow)"/>

  <!-- Main body -->
  <path d="M577.01 773.174c-.451 3.527 1.81 7.818 6.331 16.401L1117.43 1803.52c2.46 4.68 3.7 7.03 5.55 8.5 1 .79 2.12 1.41 3.32 1.83 28.51 20.3 130.79 12.59 246.39-20.47 117.49-33.59 211.34-88.69 221.94-122.06.43-.72.78-1.49 1.04-2.29.73-2.24.47-4.87-.05-10.11l-88.63-893.466c-.57-5.817-.86-8.725-2.19-10.909a11.23 11.23 0 0 0-4.92-4.392c-2.32-1.066-5.25-1.02-11.09-.929l-889.797 13.95c-9.7.152-14.549.228-17.428 2.316a11.26 11.26 0 0 0-4.555 7.684Z" fill="url(#orangeGrad)" filter="url(#shadow)"/>

  <!-- Outline refinement -->
  <path d="M1550.93 228.057c-1.07-12.387-11.99-21.558-24.37-20.485-12.39 1.073-21.56 11.985-20.49 24.372l125.67 1450.336c.54 2.24.73 4.54.6 6.89l.04.49c-2.95 37.71-92.11 88.78-258.4 137.06-172.87 50.18-276.27 47.2-294.64 17.18l-.33-.62L394.815 529.664c-5.743-11.028-19.338-15.312-30.366-9.569s-15.312 19.338-9.569 30.365l693.16 1331.05c1.11 2.13 2.51 4.01 4.13 5.61 17.18 27.88 166.06 29.99 332.52-19.31 152.93-45.29 271.73-97.49 292.19-140.5 1.46-2.59 2.43-5.49 2.77-8.55.44-2.62.47-5.2.08-7.74Z" fill="none" stroke="#222" stroke-width="20" stroke-linecap="round" stroke-linejoin="round" opacity="0.6"/>

  <!-- Bottom details (cleaned contrast) -->
  <g fill="#1A1A1A">
    <path d="m990.214 1303.45 135.216 9.56c6.4 21.56 9.38 37.25 8.94 47.06l-196.728-19.23-11.429-38.5 151.767-132.19c5.62 7.64 11.68 22.41 18.19 44.31z"/>
    <path d="M1328.32 1252.77l108.09-81.79-137.35-16.76c-5.18-17.45-7.37-32.99-6.58-46.63l196.96 27.53 11.42 38.5-154.36 123.47c-5.72-7.99-11.78-22.76-18.18-44.32z"/>
    <path d="M1171.51 1441.87l39.34-406.29 42.13-9.28-39.34 406.29z"/>
  </g>
</svg>